# xmcd
# Copyright (C) 1995-1998 Ti Kan
#
# Track frame offsets:
#       150
#       13922
#       29653
#       42592
#       56142
#       70535
#       84196
#       103293
#       118367
#       134299
#       148062
#       165126
#       178984
#
# Disc length: 2577 seconds
#
# Revision: 0
# Processed by: cddbd v1.5.2PL0 Copyright (c) Steve Scherf et al.
# Submitted via: CD-Transfer v1.0
#
DISCID=be0a0f0d
DTITLE=Atlantis - 
DYEAR=1900
DGENRE=
TTITLE0=Weil Mein Herz Nicht Denken Kann (06)
TTITLE1=Drei Finger Aufs Herz(06)
TTITLE2=Weil Das Leben Super Ist (06)
TTITLE3=Weine Nicht Um Ihn (06)
TTITLE4=Schick Ihn Zur Hölle (06)
TTITLE5=Das Licht Hinterm Horizont (06)
TTITLE6=Engerl Fliag Mir Ned Davon (06)
TTITLE7=Solang I Atmen Kann (06)
TTITLE8=Hausverbot (06)
TTITLE9=Weil Ich Dich Lieb Hab (06)
TTITLE10=Yo Te Quiero Margarita (06)
TTITLE11=Jetzt Ist Schluss (06)
TTITLE12=Ich Will Sie Immer Noch (Neue Version)
EXTD=
EXTT0=
EXTT1=
EXTT2=
EXTT3=
EXTT4=
EXTT5=
EXTT6=
EXTT7=
EXTT8=
EXTT9=
EXTT10=
EXTT11=
EXTT12=
PLAYORDER=
